<?xml version="1.0" standalone="no"?>
<!DOCTYPE svg PUBLIC "-//W3C//DTD SVG 20010904//EN"
 "http://www.w3.org/TR/2001/REC-SVG-20010904/DTD/svg10.dtd">
<svg version="1.0" xmlns="http://www.w3.org/2000/svg"
 width="512.000000pt" height="512.000000pt" viewBox="0 0 512.000000 512.000000"
 preserveAspectRatio="xMidYMid meet">

<g transform="translate(0.000000,512.000000) scale(0.100000,-0.100000)"
fill="#ffffff" stroke="none">
<path d="M1233 5106 c-188 -46 -344 -202 -388 -387 -12 -54 -15 -178 -15 -791
0 -715 0 -728 20 -748 30 -30 83 -27 109 6 21 26 21 35 21 605 l0 579 1280 0
1280 0 0 -789 c0 -861 4 -801 -54 -801 -13 0 -49 -13 -81 -29 l-57 -29 -54 53
-54 53 0 259 c0 288 -8 342 -61 425 -36 56 -94 110 -146 136 -81 42 -119 44
-808 40 l-660 -3 -57 -27 c-80 -37 -152 -107 -191 -187 l-32 -66 -3 -293 c-3
-274 -2 -298 17 -360 36 -117 112 -197 230 -244 54 -21 72 -22 434 -26 l377
-4 0 -281 c0 -303 -3 -321 -52 -345 -38 -18 -58 -7 -189 105 -64 55 -136 108
-160 117 -55 22 -151 23 -202 1 -86 -36 -153 -124 -164 -216 l-6 -49 -293 0
-294 0 0 544 0 545 -22 25 c-33 36 -75 39 -108 6 -20 -20 -20 -33 -20 -715 0
-468 4 -711 11 -747 36 -174 181 -331 358 -390 63 -21 84 -22 552 -26 l486 -3
133 -134 133 -133 -31 -49 c-52 -82 -64 -145 -60 -306 3 -130 5 -147 31 -202
37 -79 114 -156 191 -192 l61 -28 594 -3 c575 -3 597 -2 662 18 79 24 139 66
191 134 59 79 73 138 72 306 -1 168 -17 226 -84 302 l-39 45 30 94 c80 252
152 618 131 664 -17 37 -59 50 -99 31 -36 -17 -36 -17 -58 -160 -18 -120 -69
-336 -109 -461 l-25 -80 -617 3 c-527 2 -624 1 -668 -12 l-51 -16 -438 438
c-241 240 -445 450 -454 466 -23 44 -12 104 27 139 24 21 40 27 79 27 45 0 52
-4 145 -82 187 -158 226 -178 321 -158 39 8 66 22 101 53 84 74 79 31 79 742
0 579 1 633 17 662 28 50 74 77 133 77 63 0 109 -30 136 -88 17 -38 19 -74 19
-482 0 -429 1 -441 20 -459 28 -25 76 -23 103 4 21 20 22 33 27 216 5 176 7
196 26 222 66 90 205 78 254 -22 18 -37 20 -62 20 -217 0 -156 2 -178 18 -199
27 -33 78 -30 109 5 22 26 23 35 23 170 0 132 2 146 23 176 34 51 68 72 118
72 54 1 100 -21 131 -64 21 -30 23 -45 26 -173 3 -172 5 -181 43 -201 26 -13
36 -13 60 -3 43 17 49 36 49 149 0 124 18 168 82 201 76 39 154 14 197 -62 20
-35 21 -52 21 -327 0 -278 1 -290 21 -316 28 -36 80 -36 108 0 20 26 21 38 21
325 0 349 -5 373 -90 459 -96 95 -227 116 -346 55 l-58 -30 -53 53 -53 53 0
948 c0 918 -1 950 -20 1027 -44 171 -167 304 -338 366 -47 17 -88 22 -237 26
-168 4 -182 3 -205 -16 -17 -14 -24 -29 -24 -56 0 -66 12 -70 212 -76 164 -5
181 -7 234 -32 79 -36 152 -107 189 -184 25 -50 32 -80 36 -148 l6 -86 -1283
0 -1283 0 5 88 c9 151 83 262 218 326 l65 31 676 5 c648 5 678 6 698 24 31 28
28 79 -5 105 -26 21 -33 21 -688 20 -497 0 -674 -4 -713 -13z m1717 -1587 c56
-25 86 -53 113 -104 21 -37 22 -56 25 -296 l3 -256 -46 -6 c-25 -4 -58 -13
-74 -21 l-29 -15 -4 167 c-5 191 -15 227 -87 305 -57 62 -127 91 -216 91 -119
1 -218 -62 -272 -172 l-28 -57 -3 -262 -4 -263 -321 0 c-177 0 -349 5 -382 10
-79 13 -131 50 -167 119 l-28 53 0 265 c0 180 4 279 12 307 15 50 89 127 138
143 24 7 237 11 680 12 629 1 646 0 690 -20z m-1103 -2081 c123 -123 223 -226
223 -230 0 -12 -696 -9 -768 2 -128 21 -228 94 -284 207 -27 55 -33 80 -36
154 l-4 89 323 0 324 0 222 -222z m2081 -704 c93 -38 133 -110 140 -247 8
-174 -30 -266 -131 -313 l-52 -24 -565 0 c-383 0 -578 4 -605 11 -56 16 -129
91 -145 148 -7 26 -10 93 -8 166 3 115 5 124 33 170 22 36 45 57 84 77 l53 28
579 0 c501 0 585 -2 617 -16z"/>
<path d="M1686 4799 c-34 -27 -36 -77 -3 -107 23 -22 26 -22 426 -22 l402 0
24 25 c32 31 32 69 0 100 l-24 25 -399 0 c-389 0 -400 -1 -426 -21z"/>
<path d="M2735 4795 c-14 -13 -25 -36 -25 -50 0 -35 42 -75 79 -75 35 0 71 39
71 77 0 32 -42 73 -75 73 -14 0 -37 -11 -50 -25z"/>
</g>
</svg>
